<?xml version="1.0" encoding="UTF-8"?>
<svg id="_レイヤー_2" xmlns="http://www.w3.org/2000/svg" version="1.1" viewBox="0 0 3066.8 561.4">
  <!-- Generator: Adobe Illustrator 30.2.1, SVG Export Plug-In . SVG Version: 2.1.1 Build 1)  -->
  <defs>
    <style>
      .st0 {
        isolation: isolate;
      }

      .st1 {
        fill: #fff;
      }
    </style>
  </defs>
  <g id="_レイヤー_1-2">
    <path class="st1" d="M648.2,16c4.3,2.6,8,5.7,11.7,9.1.6.5,1.2,1,1.8,1.6,9.8,8.8,16.7,22.1,19.7,34.8,6.6,32.4-2.9,64.1-15.5,93.8-1.6,3.7-3.3,7.3-5.1,10.8-.5.9-.9,1.8-1.4,2.8-14.4,29-32.2,55.8-52.1,81.3-1.5,1.9-2.9,3.7-4.4,5.6-8.6,11.1-17.7,21.7-27.2,32.1-1.9,2.1-3.7,4.1-5.5,6.2-5.8,6.6-11.6,13.2-17.8,19.3-1.7,1.7-3.2,3.4-4.7,5.2-7.3,8.4-15.3,16.4-23.8,23.5-3.6,3.2-6.9,6.7-10.3,10.1-4.1,4.1-8.3,8-12.8,11.8l-1,1c-.1,2.4-.2,4.7-.2,7.1v14.7c0,4.5-.1,9-.2,13.5,0,5.4-.1,10.8-.2,16.1,0,8.2-.2,16.4-.3,24.6h-69c-.3-6.3-.7-12.5-1-19-2,1.5-4,3-6.1,4.5-15.8,11.6-31.9,22.7-48.6,33-2.4,1.5-4.9,3-7.3,4.6-20.3,12.8-41.1,24.6-62.5,35.6-2.4,1.2-4.8,2.5-7.2,3.8-25.4,13.8-52.3,24.7-79.4,34.5-.6.2-1.3.5-2,.7-20,7.3-40.2,12.7-61.1,16.9-1.8.4-3.7.7-5.5,1.1-30.9,6.2-69.9,7.8-99.5-4.7-8.7-4-16.9-8.6-24-15-.8-.7-1.6-1.4-2.5-2.2-11.4-10.6-16.7-23.1-20.5-37.8-.2-.9-.5-1.8-.7-2.7-3.2-14-2.1-30.4.7-44.3.2-.8.3-1.6.5-2.4,9.4-46.7,34-87.2,61.2-125.7.9-1.3,1.7-2.6,2.3-3.9h2c.7,5.3,1.3,10.8-.8,15.9-1.9,3.3-4.1,6.4-6.2,9.6-17.3,25.4-31,58.6-31.4,89.7.3,15,3.5,30.1,12.1,42.6,10.6,13.7,24.1,21.2,40.3,26.2,15.6,4.2,31,4.3,47,4h3.8c62.3-2.5,127.7-33.6,180.7-64.5,3.1-1.8,6.2-3.5,9.3-5.2,24.8-13.5,48.3-29.8,71.1-46.3.8-.6,1.5-1.1,2.3-1.7,10.6-7.7,20.9-15.6,31-24,2.2-1.8,4.5-3.6,6.8-5.4,9.9-7.9,19.5-16.4,28.9-24.9,1.6-1.5,3.2-2.9,4.9-4.4s3.4-3.1,5.1-4.6c.9-.8,1.7-1.6,2.6-2.4,7.5-6.8,14.7-13.8,21.9-21l5.5-5.5c5.4-5.4,10.7-10.7,15.6-16.5,2.2-2.6,4.5-5,6.8-7.5,4.2-4.6,8.3-9.3,12.2-14.2,1.8-2.2,3.6-4.4,5.4-6.6,18.7-22.6,35.8-46.8,50-72.4.4-.7.8-1.4,1.2-2.1,6.1-11,11.3-22.2,15.8-33.9.3-.8.6-1.6,1-2.5,6.6-17.1,9.2-32.5,9.5-50.8v-3.8c0-12-3-23.7-9.5-33.9-2.8-3.5-5.8-6.8-9-10-.5-.6-1.1-1.1-1.6-1.7-9.1-8.8-24.4-13.6-36.5-15.9-8.7-1.3-17.3-1.8-26.2-1.8h-2.1c-13.5,0-26.4,1.7-39.6,4.4-1.9.4-3.8.7-5.6,1.1-36.1,7.1-70.4,21-103.4,36.9-.8.4-1.6.8-2.4,1.1-4.6,2.2-9.1,4.5-13.6,6.9-1,.5-1.9,1-2.9,1.5-3.3,1.7-6.6,3.4-9.9,5.1-1,.5-2.1,1.1-3.2,1.6-4.9,2.5-9.6,5.1-14.3,8.1-3.1,1.9-4.8,2.6-8.5,3.2-1.1,0-2.2-.1-3.3-.2s-2.3-.1-3.4-.2c-.8,0-1.6,0-2.5-.2,3.3-2.7,6.5-5,10.2-7,1-.6,2-1.1,3-1.7,1.1-.6,2.1-1.2,3.2-1.8,1.1-.6,2.3-1.2,3.4-1.9,2.3-1.3,4.6-2.5,6.9-3.8,3-1.6,6-3.3,8.9-4.9,44.2-24.5,91.4-45.9,140.5-58.1,2.9-.7,5.8-1.5,8.7-2.3,44-11.4,98.3-17.8,139.4,5.5l.4.2h0Z"/>
    <path class="st1" d="M88.8,113.1h62c3,4,5.9,7.9,9,12,2.6,3.4,5.1,6.8,7.7,10.1.7.9,1.4,1.8,2.1,2.7,5,6.6,10.1,13.1,15.2,19.7,4.3,5.5,8.5,11.1,12.7,16.7,3.7,5,7.5,9.8,11.3,14.7,3.4,4.3,6.7,8.6,10,12.9,3.6,4.7,7.3,9.5,11,14.2,5.7,7.3,11.4,14.6,17,22,1.6,2.1,3.2,4.2,4.8,6.2,2.8,3.6,5.6,7.2,8.3,10.9,5.1,6.7,10.2,13.3,15.4,19.9,5.1,6.4,10.1,13,15.1,19.5,4.5,5.8,9,11.7,13.4,17.5.3-38.3.7-76.6,1-116h68v187c-12.5,8.6-21.3,14.5-26.4,17.8l-2.7,1.7c-7.4,4.7-14.9,9.3-22.4,13.8-1.1.7-2.1,1.3-3.2,2-1,.6-2,1.2-3,1.8-.9.5-1.8,1.1-2.7,1.6-2.5,1.3-4.7,1.9-7.5,2.3-7.6-9.6-15.1-19.3-22.5-29-3-4-6.1-7.9-9.1-11.9-1.6-2.1-3.2-4.2-4.8-6.3-4.3-5.6-8.7-11.2-13-16.8-6.2-7.9-12.4-15.9-18.5-24-6.2-8.1-12.5-16.2-18.7-24.3-3.9-5.1-7.8-10.1-11.7-15.2-5.1-6.7-10.3-13.4-15.5-20l-15-19.5c-1.3-1.7-2.6-3.4-3.9-5.1-.8-1.1-1.7-2.2-2.5-3.3-3.1-4-6.2-8-9.4-11.9-.8-1.1-1.2-2.4-1.2-3.7h-2v208h-68V113.1h-.3Z"/>
    <path class="st1" d="M304.9,113.1h295c-4.4,22-13.5,42.8-25,62h-76c.2,7,.3,13.9.5,21.1,0,4.4.1,8.9.2,13.3,0,7,.2,14.1.4,21.1.2,5.7.2,11.4.3,17,0,2.2,0,4.3.2,6.5.4,10.9-.5,18.4-2.8,22.3-3.2,4.2-6.9,7.8-11,11.2-2.2,1.9-4.2,4-6.2,6.1l-3.8,3.8-1.9,1.9c-3.8,3.8-7.8,7.4-11.9,11-1.9,1.6-3.6,3.3-5.3,5.1-3.7,3.7-7.5,7.1-11.5,10.5-1.2,1-2.4,2.1-3.6,3.1-1.3,1.1-2.5,2.2-3.8,3.3-.6.5-1.2,1.1-1.9,1.7-1.6,1.3-3.1,2.6-4.7,3.9h-2v-163h-125v-62h-.2q0,0,0,0Z"/>
    <g class="st0">
      <g class="st0">
        <path class="st1" d="M1089.5,126.1v315h-59.8l-157-191.2v191.2h-72V126.1h60.3l156.6,191.3V126.1h72Z"/>
        <path class="st1" d="M1408.1,382.6v58.5h-243.9V126.1h238.1v58.5h-165.6v68.4h146.2v56.7h-146.2v72.9h171.4Z"/>
        <path class="st1" d="M1661.4,441.1l-76.1-109.4-74.7,109.4h-83.7l116.6-160.2-110.7-154.8h82.8l72.4,102.2,71.1-102.2h78.8l-109.8,152.1,117.4,162.9h-84.2Z"/>
        <path class="st1" d="M1836.1,185.5h-100.8v-59.4h274.5v59.4h-100.8v255.6h-72.9v-255.6h0Z"/>
        <path class="st1" d="M2024.6,283.6c0-93.6,72.9-162.9,172.3-162.9s172.4,68.9,172.4,162.9-73.4,162.9-172.4,162.9-172.3-69.3-172.3-162.9ZM2295.5,283.6c0-59.9-42.3-100.8-98.6-100.8s-98.6,40.9-98.6,100.8,42.3,100.8,98.6,100.8,98.6-41,98.6-100.8Z"/>
        <path class="st1" d="M2624.9,441.1l-60.8-87.8h-67.1v87.8h-72.9V126.1h136.4c84.1,0,136.8,43.7,136.8,114.3s-23.9,81.9-64.8,99.5l70.6,101.2h-78.3ZM2556.5,185.5h-59.4v109.8h59.4c44.6,0,67.1-20.7,67.1-54.9s-22.5-54.9-67.1-54.9h0Z"/>
        <path class="st1" d="M2962.4,373.6h-146.2l-27.9,67.5h-74.7l140.4-315h72l140.9,315h-76.5l-27.9-67.5h0ZM2939.4,318.2l-49.9-120.6-49.9,120.6h99.9Z"/>
      </g>
    </g>
  </g>
</svg>