
<svg version="1.1" xmlns="http://www.w3.org/2000/svg" width="1024" height="1024" viewBox="0 0 1024 1024" preserveAspectRatio="xMidYMid meet">
<path d="M0 0 C337.92 0 675.84 0 1024 0 C1024 337.92 1024 675.84 1024 1024 C686.08 1024 348.16 1024 0 1024 C0 686.08 0 348.16 0 0 Z " fill="#FEFEFE" transform="translate(0,0)" />
<path d="M0 0 C4.28727353 2.59499206 8.0464517 5.68373775 11.73925781 9.05273438 C12.34769531 9.56964844 12.95613281 10.0865625 13.58300781 10.61914062 C23.34133847 19.46817229 30.31250821 32.72948606 33.296875 45.42480469 C39.91417131 77.87432724 30.35206571 109.51567069 17.84545898 139.21264648 C16.23654779 142.87299427 14.5089294 146.46775076 12.73925781 150.05273438 C12.28744141 150.9740918 11.835625 151.89544922 11.37011719 152.84472656 C-2.9898805 181.87525923 -20.84702398 208.60074437 -40.7421875 234.10498047 C-42.19993855 235.9747454 -43.64907801 237.85088812 -45.09667969 239.72851562 C-53.68971029 250.82625495 -62.81969162 261.43189946 -72.24902344 271.82617188 C-74.10808888 273.88377829 -75.94002577 275.96120201 -77.76074219 278.05273438 C-83.53576928 284.66995292 -89.33966366 291.21412439 -95.60839844 297.36914062 C-97.26590665 299.05799651 -98.79325644 300.81053797 -100.32324219 302.61523438 C-107.59355128 311.03694989 -115.64481258 318.97088419 -124.13964844 326.15039062 C-127.72888774 329.36946897 -131.06862025 332.84113197 -134.45727539 336.26879883 C-138.56113776 340.40158285 -142.80612149 344.29884053 -147.26074219 348.05273438 C-147.59074219 348.38273437 -147.92074219 348.71273438 -148.26074219 349.05273438 C-148.38561173 351.42474984 -148.4467427 353.7691378 -148.46606445 356.14282227 C-148.47596405 356.88423965 -148.48586365 357.62565704 -148.49606323 358.38954163 C-148.52776685 360.8514583 -148.55247045 363.31339431 -148.57714844 365.77539062 C-148.59771033 367.47790542 -148.61870659 369.18041503 -148.64012146 370.88291931 C-148.69542118 375.37260747 -148.74479547 379.86234229 -148.79296875 384.35211182 C-148.85193872 389.73442969 -148.91820997 395.11666194 -148.98326874 400.498909 C-149.0813776 408.68346533 -149.17016555 416.86807558 -149.26074219 425.05273438 C-172.03074219 425.05273438 -194.80074219 425.05273438 -218.26074219 425.05273438 C-218.59074219 418.78273438 -218.92074219 412.51273438 -219.26074219 406.05273438 C-221.26136719 407.53773438 -223.26199219 409.02273438 -225.32324219 410.55273438 C-241.11096129 422.16287933 -257.20814987 433.2901302 -273.88623047 443.58300781 C-276.3295911 445.09534906 -278.76260728 446.62333196 -281.19433594 448.15429688 C-301.52343491 460.91172414 -322.29676079 472.76719019 -343.65869141 483.70458984 C-346.06424823 484.95092919 -348.44883484 486.22798639 -350.82714844 487.52539062 C-376.26149938 501.3629355 -403.07825955 512.19562916 -430.26074219 522.05273438 C-430.90442749 522.28776672 -431.54811279 522.52279907 -432.21130371 522.76495361 C-452.23489688 530.06919374 -472.40970587 535.47048601 -493.28271484 539.65563965 C-495.12034872 540.02454998 -496.95625088 540.40205793 -498.79199219 540.78027344 C-529.73775334 546.96021562 -568.67367698 548.60777191 -598.26074219 536.05273438 C-606.93402776 532.05788522 -615.11385902 527.44522432 -622.26074219 521.05273438 C-623.08058594 520.33730469 -623.90042969 519.621875 -624.74511719 518.88476562 C-636.12815711 508.31233612 -641.4340571 495.7862466 -645.26074219 481.05273438 C-645.50695312 480.16714844 -645.75316406 479.2815625 -646.00683594 478.36914062 C-649.24817619 464.39784645 -648.06274611 447.97519137 -645.26074219 434.05273438 C-645.10476563 433.25963867 -644.94878906 432.46654297 -644.78808594 431.64941406 C-635.43578751 384.90524099 -610.82023569 344.41212333 -583.58642578 305.98950195 C-582.22517653 304.09507268 -582.22517653 304.09507268 -581.26074219 302.05273438 C-580.60074219 302.05273438 -579.94074219 302.05273438 -579.26074219 302.05273438 C-578.51395521 307.36321952 -577.91593276 312.87401817 -580.04882812 317.91552734 C-581.9121566 321.25287215 -584.10327076 324.35837768 -586.26074219 327.50976562 C-603.57234294 352.95621581 -617.23261598 386.07236417 -617.63574219 417.17773438 C-617.29324887 432.17298544 -614.18566384 447.28346822 -605.57324219 459.80273438 C-594.97242401 473.46645311 -581.48177181 481.00445254 -565.26074219 486.05273438 C-549.6513969 490.24338067 -534.30058682 490.31139247 -518.26074219 490.05273438 C-517.00390625 490.03597656 -515.74707031 490.01921875 -514.45214844 490.00195312 C-452.122461 487.47994265 -386.77888619 456.44265788 -333.7421875 425.48291016 C-330.65536836 423.70382845 -327.52881491 422.00536875 -324.39599609 420.30908203 C-299.60828953 406.84408702 -276.1197928 390.54453417 -253.26074219 374.05273438 C-252.4952002 373.50117676 -251.7296582 372.94961914 -250.94091797 372.38134766 C-240.33254241 364.71433617 -230.02615551 356.76628758 -219.93701172 348.42919922 C-217.69310907 346.58662376 -215.41553221 344.78811756 -213.13574219 342.99023438 C-203.19297078 335.05610366 -193.67252552 326.60463717 -184.26074219 318.05273438 C-182.63624485 316.59384113 -181.01123539 315.13551796 -179.38574219 313.67773438 C-177.67696824 312.1365561 -175.9686944 310.59482326 -174.26074219 309.05273438 C-173.39537842 308.27422119 -172.53001465 307.49570801 -171.63842773 306.69360352 C-164.14512057 299.89592166 -156.9180946 292.86539622 -149.77709961 285.69946289 C-147.93619511 283.85315191 -146.08993947 282.01231164 -144.24316406 280.171875 C-138.88866398 274.82038761 -133.5828409 269.47913657 -128.6730957 263.71020508 C-126.48844616 261.1464046 -124.1815103 258.70491035 -121.88574219 256.24023438 C-117.64763517 251.64714062 -113.60474026 246.94003216 -109.68652344 242.06835938 C-107.90714354 239.85631222 -106.11443666 237.66066598 -104.30371094 235.47460938 C-85.61966408 212.85058459 -68.53695119 188.70988967 -54.26074219 163.05273438 C-53.87869629 162.37227051 -53.49665039 161.69180664 -53.10302734 160.99072266 C-46.9787135 150.01617785 -41.82404828 138.75971831 -37.26074219 127.05273438 C-36.93799316 126.22837891 -36.61524414 125.40402344 -36.28271484 124.5546875 C-29.68805221 107.45962439 -27.03727663 92.0799601 -26.82324219 73.74023438 C-26.80076416 72.48871582 -26.77828613 71.23719727 -26.75512695 69.94775391 C-26.78609412 57.92772783 -29.72525366 46.26133291 -36.26074219 36.05273438 C-39.060969 32.50367102 -42.07411224 29.25607742 -45.26074219 26.05273438 C-45.79183594 25.48683594 -46.32292969 24.9209375 -46.87011719 24.33789062 C-55.94006496 15.52508055 -71.30826256 10.72551843 -83.41357422 8.46362305 C-92.16288485 7.15375665 -100.73038753 6.66632704 -109.57324219 6.67773438 C-110.60830399 6.67805161 -110.60830399 6.67805161 -111.66427612 6.67837524 C-125.15633966 6.71921161 -138.03516613 8.36263573 -151.26074219 11.05273438 C-153.13952122 11.40757529 -155.01842632 11.76174938 -156.89746094 12.11523438 C-192.95248331 19.17173078 -227.32423225 33.07869179 -260.26074219 49.05273438 C-261.0415918 49.42994629 -261.82244141 49.8071582 -262.62695312 50.19580078 C-267.20509114 52.41770354 -271.7380072 54.7205006 -276.26074219 57.05273438 C-277.2267334 57.54805664 -278.19272461 58.04337891 -279.18798828 58.55371094 C-282.50650621 60.25672014 -285.82165562 61.96611889 -289.13574219 63.67773438 C-290.18270264 64.2165625 -291.22966309 64.75539063 -292.30834961 65.31054688 C-297.1981887 67.8493896 -301.93367269 70.45374137 -306.57324219 73.42773438 C-309.71831452 75.34653727 -311.34751072 76.06604243 -315.08105469 76.63867188 C-316.716875 76.53425781 -316.716875 76.53425781 -318.38574219 76.42773438 C-320.06023437 76.34652344 -320.06023437 76.34652344 -321.76855469 76.26367188 C-322.59097656 76.1940625 -323.41339844 76.12445313 -324.26074219 76.05273438 C-321.00616623 73.34478696 -317.77692652 71.07552593 -314.07714844 69.02148438 C-313.0788501 68.46452881 -312.08055176 67.90757324 -311.05200195 67.33374023 C-309.98651123 66.7460083 -308.92102051 66.15827637 -307.82324219 65.55273438 C-306.15249634 64.62569702 -306.15249634 64.62569702 -304.44799805 63.67993164 C-302.15382146 62.40875673 -299.85832441 61.13996208 -297.56152344 59.87353516 C-294.58252883 58.23024065 -291.60859445 56.57819695 -288.63574219 54.92382812 C-244.4838562 30.45878381 -197.25819658 9.06284926 -148.13720703 -3.22363281 C-145.21785443 -3.95805491 -142.31270589 -4.73745316 -139.40527344 -5.51757812 C-95.39409215 -16.8974604 -41.15377243 -23.34996422 0 0 Z " fill="#034088" transform="translate(818.2607421875,153.947265625)" />
<path d="M0 0 C20.46 0 40.92 0 62 0 C64.97 3.96 67.94 7.92 71 12 C73.55822333 15.37839745 76.1190967 18.75437913 78.6875 22.125 C79.37102539 23.0224292 80.05455078 23.9198584 80.75878906 24.84448242 C85.79123682 31.44099075 90.87676263 37.99433831 95.984375 44.53271484 C100.2839108 50.04856669 104.48897296 55.62972089 108.66845703 61.23681641 C112.37302109 66.1948137 116.16597338 71.07604301 120.00341797 75.93164062 C123.37836805 80.20213402 126.70810931 84.50527207 130.02001953 88.82495117 C133.65883814 93.56650672 137.32754629 98.28446503 141 103 C146.6938293 110.31277553 152.35690631 117.64801604 158 125 C159.60405092 127.08342246 161.20822017 129.1667538 162.8125 131.25 C165.59389848 134.86244964 168.36818886 138.4801604 171.1328125 142.10546875 C176.21527878 148.76906266 181.3066581 155.42227402 186.5 162 C191.59150658 168.44874451 196.58619268 174.96898871 201.56640625 181.50390625 C206.02910343 187.34755182 210.51691076 193.17198399 215 199 C215.33 160.72 215.66 122.44 216 83 C238.44 83 260.88 83 284 83 C284 144.71 284 206.42 284 270 C265.24274758 282.89561104 265.24274758 282.89561104 257.5625 287.75 C256.66217041 288.32000732 255.76184082 288.89001465 254.83422852 289.47729492 C247.40876166 294.1546095 239.93860252 298.75777157 232.4375 303.3125 C231.37281494 303.96508789 230.30812988 304.61767578 229.21118164 305.29003906 C227.71252563 306.19254395 227.71252563 306.19254395 226.18359375 307.11328125 C225.30243896 307.64735596 224.42128418 308.18143066 223.51342773 308.73168945 C220.97625865 310.01198022 218.79971409 310.58882242 216 311 C208.41312042 301.40617032 200.94509269 291.72723239 193.52832031 282.00146484 C190.4937392 278.02742395 187.44165437 274.06688592 184.390625 270.10546875 C182.77399434 268.00543382 181.15908886 265.90419656 179.546875 263.80078125 C175.23137988 258.17372241 170.88827704 252.57053503 166.5 247 C160.25302697 239.06833971 154.10148085 231.06521733 147.9765625 223.0390625 C141.7679237 214.90508012 135.52330516 206.80149478 129.23144531 198.73168945 C125.29299192 193.67552263 121.38617727 188.59643209 117.5 183.5 C112.38231418 176.78894705 107.21563687 170.11754526 102.02832031 163.46020508 C96.99120202 156.99449232 91.98976723 150.50231611 87 144 C85.70174419 142.3097432 84.40312787 140.61976542 83.10400391 138.93017578 C82.25538691 137.82617159 81.40738603 136.72169347 80.56005859 135.61669922 C77.48199711 131.60745947 74.34965478 127.6439261 71.1796875 123.70703125 C70 122 70 122 70 120 C69.34 120 68.68 120 68 120 C68 188.64 68 257.28 68 328 C45.56 328 23.12 328 0 328 C0 219.76 0 111.52 0 0 Z " fill="#013F88" transform="translate(259,251)" />
<path d="M0 0 C97.35 0 194.7 0 295 0 C290.60018923 21.99905386 281.53958044 42.76736593 270 62 C244.92 62 219.84 62 194 62 C194.16242188 68.97253906 194.32484375 75.94507813 194.4921875 83.12890625 C194.56380707 87.57245035 194.63120171 92.01527316 194.68359375 96.45898438 C194.76697944 103.49785923 194.86510907 110.53416141 195.05615234 117.57104492 C195.20938103 123.25125485 195.29220123 128.92870414 195.3282814 134.61082268 C195.35395685 136.76754126 195.40409905 138.92412506 195.48022079 141.07965279 C196.03547884 157.46940301 196.03547884 157.46940301 192.63295364 163.37118149 C189.43239365 167.61818605 185.7230983 171.17054228 181.66131592 174.58451653 C179.42714214 176.48808948 177.42569658 178.58436573 175.4140625 180.71875 C174.15361177 181.98173684 172.89072697 183.2423009 171.625 184.5 C170.99207031 185.13679687 170.35914063 185.77359375 169.70703125 186.4296875 C165.87888184 190.25004027 161.93416094 193.87546939 157.82373047 197.390625 C155.97037575 199.02614231 154.23023539 200.7354562 152.5 202.5 C148.83679544 206.21237509 144.95556507 209.60412537 141 213 C139.81593928 214.03592483 138.63238853 215.07243271 137.44921875 216.109375 C136.17470207 217.21900608 134.8999611 218.32837958 133.625 219.4375 C133.0055249 219.98237061 132.3860498 220.52724121 131.74780273 221.08862305 C130.19714371 222.43024768 128.60177699 223.71983965 127 225 C126.34 225 125.68 225 125 225 C125 171.21 125 117.42 125 62 C83.75 62 42.5 62 0 62 C0 41.54 0 21.08 0 0 Z " fill="#014088" transform="translate(475,251)" />
<path d="M0 0 C1.155 -0.01224609 2.31 -0.02449219 3.5 -0.03710938 C16.1626458 -0.05879199 27.35390753 3.16258749 38.0625 10.125 C39.46831734 11.13203971 40.8649543 12.15207748 42.25 13.1875 C42.84167969 13.59097656 43.43335938 13.99445312 44.04296875 14.41015625 C51.79982639 20.21448679 57.42858389 30.09872221 60.8125 39.0625 C63.8813701 50.56015619 64.17449543 65.51041975 60.6875 76.9375 C59.5703125 79.59765625 59.5703125 79.59765625 58.25 82.1875 C57.75242187 83.19683594 57.25484375 84.20617187 56.7421875 85.24609375 C50.77551442 96.36075687 42.45203716 104.39185143 31.25 110.1875 C15.74331734 116.74344689 -0.35830728 117.97068803 -16.85131836 114.80859375 C-26.76745282 112.54626425 -36.63081453 107.17745803 -43.98046875 100.1640625 C-52.65479199 90.47486259 -58.83269583 80.1467968 -60.75 67.1875 C-60.97476954 63.95670049 -61.04609018 60.73809899 -61.0625 57.5 C-61.06797852 56.7164917 -61.07345703 55.9329834 -61.07910156 55.12573242 C-60.94476203 44.09715177 -57.67836928 34.47673346 -51.75 25.1875 C-43.4268211 13.71617571 -32.80405508 6.97890296 -19.59765625 2.1328125 C-12.99415433 -0.05929651 -6.935486 0.0038191 0 0 Z " fill="#054087" transform="translate(607.75,768.8125)" />
<path d="M0 0 C9.28125 -0.061875 18.5625 -0.12375 28.125 -0.1875 C31.02555176 -0.21481201 33.92610352 -0.24212402 36.91455078 -0.27026367 C39.25813381 -0.27903966 41.60172147 -0.28668094 43.9453125 -0.29296875 C45.12601318 -0.30831665 46.30671387 -0.32366455 47.52319336 -0.33947754 C60.68906944 -0.3435369 72.70580122 2.01693951 84 9 C90.60518988 13.68188168 94.9473617 19.17919102 98.109375 26.60546875 C100.45307723 35.53826365 100.63227618 47.92672324 97.5625 56.6875 C93.24489782 65.20065199 86.26844544 71.48993885 78 76 C83.48751838 84.76902134 89.26346027 93.32359263 95.12133789 101.84765625 C96.25858756 103.50389546 97.39301798 105.1620694 98.52734375 106.8203125 C99.19499756 107.79242676 99.86265137 108.76454102 100.55053711 109.76611328 C102 112 102 112 102 113 C97.80088403 113.12383963 93.60274184 113.21444607 89.40234375 113.2746582 C87.97442099 113.29976347 86.54662625 113.33385587 85.11914062 113.37719727 C83.06348082 113.43803678 81.00952247 113.46624551 78.953125 113.48828125 C77.09929199 113.52755737 77.09929199 113.52755737 75.20800781 113.56762695 C72 113 72 113 69.77172852 110.85327148 C67.9433266 107.90873061 66.28775412 104.94014239 64.69921875 101.859375 C58.87945518 91.17197997 58.87945518 91.17197997 51 82 C43.25612702 78.67445609 36.32952426 80.10220697 28 81 C28 91.56 28 102.12 28 113 C18.76 113 9.52 113 0 113 C0 75.71 0 38.42 0 0 Z " fill="#044088" transform="translate(690,770)" />
<path d="M0 0 C9.24 0 18.48 0 28 0 C28 37.29 28 74.58 28 113 C20.08 113 12.16 113 4 113 C-3.05792704 106.71075808 -3.05792704 106.71075808 -4.70703125 103.7734375 C-7.00827236 99.91245522 -9.68049904 96.49272674 -12.5 93 C-13.41393021 91.82903708 -14.32669271 90.65716182 -15.23828125 89.484375 C-18.41834774 85.43722319 -21.74727861 81.52334289 -25.08813477 77.60888672 C-29.16989758 72.82115634 -33.09160303 67.9305931 -37 63 C-42.94 55.575 -42.94 55.575 -49 48 C-49.33 69.45 -49.66 90.9 -50 113 C-58.91 113 -67.82 113 -77 113 C-77 76.04 -77 39.08 -77 1 C-69.08 1 -61.16 1 -53 1 C-48.11594377 5.36994504 -46.09235011 7.65979701 -43 13 C-41.51386632 14.88209318 -39.99337754 16.73764024 -38.4375 18.5625 C-36.95788877 20.3746371 -35.47871279 22.18712969 -34 24 C-29.28958688 29.76803418 -24.56892779 35.5273543 -19.83325195 41.2746582 C-18.61632825 42.75185351 -17.40001412 44.22955121 -16.18432617 45.70776367 C-13.50124249 48.96964517 -10.81433992 52.22759603 -8.1015625 55.46484375 C-7.28429687 56.44582031 -6.46703125 57.42679688 -5.625 58.4375 C-4.91601562 59.28183594 -4.20703125 60.12617187 -3.4765625 60.99609375 C-2.98929687 61.65738281 -2.50203125 62.31867187 -2 63 C-2 63.66 -2 64.32 -2 65 C-1.34 65 -0.68 65 0 65 C0 43.55 0 22.1 0 0 Z " fill="#074288" transform="translate(176,770)" />
<path d="M0 0 C9.57 0 19.14 0 29 0 C52.24879996 50.42344519 52.24879996 50.42344519 62.875 74.875 C65.03739121 79.84583015 67.26421342 84.77857476 69.5625 89.6875 C69.84923584 90.29996582 70.13597168 90.91243164 70.43139648 91.54345703 C71.86937666 94.60770969 73.31753985 97.66687991 74.7734375 100.72265625 C75.32257813 101.88667969 75.87171875 103.05070313 76.4375 104.25 C77.17806641 105.80460938 77.17806641 105.80460938 77.93359375 107.390625 C79 110 79 110 79 113 C69.43 113 59.86 113 50 113 C48.515 109.57625 47.03 106.1525 45.5 102.625 C44.79520508 101.00779053 44.79520508 101.00779053 44.07617188 99.35791016 C43.71072266 98.51019043 43.34527344 97.6624707 42.96875 96.7890625 C42.59169922 95.91975098 42.21464844 95.05043945 41.82617188 94.15478516 C41 92 41 92 41 90 C23.51 90.33 6.02 90.66 -12 91 C-14.97 98.26 -17.94 105.52 -21 113 C-30.57 113 -40.14 113 -50 113 C-45.33532759 101.48389641 -40.42395462 90.12556112 -35.26528931 78.82324219 C-33.17529322 74.24331217 -31.09574113 69.65864249 -29.015625 65.07421875 C-28.38452568 63.68401016 -28.38452568 63.68401016 -27.74067688 62.26571655 C-23.55233785 53.03070485 -19.42339134 43.76970116 -15.3125 34.5 C-14.99701202 33.78870941 -14.68152405 33.07741882 -14.35647583 32.34457397 C-12.85472292 28.9579916 -11.35405733 25.57092918 -9.85400391 22.18359375 C-6.57696261 14.78567803 -3.28717154 7.3934178 0 0 Z " fill="#054087" transform="translate(846,770)" />
<path d="M0 0 C29.04 0 58.08 0 88 0 C88 7.59 88 15.18 88 23 C68.2 23 48.4 23 28 23 C28 30.26 28 37.52 28 45 C45.49 45 62.98 45 81 45 C81 52.26 81 59.52 81 67 C63.51 67 46.02 67 28 67 C28 74.92 28 82.84 28 91 C48.46 91 68.92 91 90 91 C90 98.26 90 105.52 90 113 C60.3 113 30.6 113 0 113 C0 75.71 0 38.42 0 0 Z " fill="#0A4489" transform="translate(229,770)" />
<path d="M0 0 C10.56 0 21.12 0 32 0 C33.39734375 2.10761719 34.7946875 4.21523438 36.234375 6.38671875 C37.59741893 8.43909546 38.96126827 10.49093471 40.32519531 12.54272461 C41.26874654 13.96306346 42.21146658 15.38395486 43.15332031 16.80541992 C44.51145945 18.85483178 45.87262853 20.90220257 47.234375 22.94921875 C47.65120544 23.5796257 48.06803589 24.21003265 48.49749756 24.85954285 C50.84517181 28.3814974 53.29967533 31.73304094 56 35 C58.50205212 31.4180957 61.00124598 27.83420567 63.5 24.25 C64.54414063 22.75533203 64.54414063 22.75533203 65.609375 21.23046875 C66.65351563 19.73193359 66.65351563 19.73193359 67.71875 18.203125 C68.34716797 17.30239258 68.97558594 16.40166016 69.62304688 15.47363281 C73.13018204 10.34837407 76.55512536 5.16731197 80 0 C90.23 0 100.46 0 111 0 C109.5314391 2.93712181 108.21424107 5.23276659 106.3125 7.8359375 C105.51960571 8.92660522 105.51960571 8.92660522 104.71069336 10.03930664 C104.14616455 10.81008545 103.58163574 11.58086426 103 12.375 C101.81352119 14.00630615 100.6273259 15.63781855 99.44140625 17.26953125 C98.85504395 18.07471191 98.26868164 18.87989258 97.66455078 19.70947266 C94.1899686 24.4907179 90.76364843 29.30602258 87.34033203 34.12402344 C85.80772771 36.26911116 84.26113125 38.40381941 82.71484375 40.5390625 C81.60137747 42.08840871 80.48809371 43.6378861 79.375 45.1875 C78.84124756 45.91912354 78.30749512 46.65074707 77.75756836 47.40454102 C77.26780518 48.08959717 76.77804199 48.77465332 76.2734375 49.48046875 C75.61480713 50.39155396 75.61480713 50.39155396 74.94287109 51.32104492 C73.75517343 53.11502702 73.75517343 53.11502702 74 56 C74.90730887 57.6995466 74.90730887 57.6995466 76.203125 59.4140625 C76.68257568 60.0836499 77.16202637 60.7532373 77.65600586 61.44311523 C78.18202393 62.16313721 78.70804199 62.88315918 79.25 63.625 C80.36089628 65.17041538 81.47156728 66.71599271 82.58203125 68.26171875 C83.15260254 69.0511084 83.72317383 69.84049805 84.31103516 70.65380859 C86.88341461 74.22717757 89.40822872 77.83356344 91.9375 81.4375 C95.1110036 85.95221811 98.31338765 90.44236073 101.57421875 94.89453125 C102.46282593 96.11088257 102.46282593 96.11088257 103.36938477 97.35180664 C104.51230028 98.91304418 105.65970316 100.47100981 106.81225586 102.02514648 C107.33053955 102.73356689 107.84882324 103.4419873 108.3828125 104.171875 C108.84059082 104.7915918 109.29836914 105.41130859 109.77001953 106.04980469 C111 108 111 108 113 113 C102.44 113 91.88 113 81 113 C79.618125 110.916875 78.23625 108.83375 76.8125 106.6875 C72.59351987 100.35401062 68.34140635 94.04314826 64.0625 87.75 C63.50731689 86.92846436 62.95213379 86.10692871 62.38012695 85.26049805 C61.85378662 84.48875244 61.32744629 83.71700684 60.78515625 82.921875 C60.31988525 82.23706055 59.85461426 81.55224609 59.37524414 80.84667969 C58.04048762 79.05436683 56.62087884 77.53403006 55 76 C47.93631131 85.94007363 40.95512998 95.92961981 34.1027832 106.0168457 C33.31907349 107.16866333 33.31907349 107.16866333 32.51953125 108.34375 C32.05651611 109.02630859 31.59350098 109.70886719 31.11645508 110.41210938 C30 112 30 112 29 113 C26.70848583 113.08790975 24.41427476 113.10694038 22.12109375 113.09765625 C21.09110008 113.09553383 21.09110008 113.09553383 20.04029846 113.09336853 C17.83932199 113.08775479 15.63844591 113.07520007 13.4375 113.0625 C11.94856917 113.05748676 10.45963676 113.05292355 8.97070312 113.04882812 C5.31376925 113.03778093 1.65689442 113.02050713 -2 113 C1.10206357 107.11122263 4.47773327 101.74892865 8.5625 96.5 C12.84879876 90.89135374 17.0157665 85.2214776 21.0625 79.4375 C26.59367301 71.5390835 32.26712352 63.75292548 38 56 C33.97688567 49.35820397 29.63276532 43.02212256 25.0625 36.75 C19.70000794 29.38236057 14.41363596 21.96507666 9.1875 14.5 C8.47537354 13.4903418 7.76324707 12.48068359 7.02954102 11.44042969 C6.37397217 10.50102539 5.71840332 9.56162109 5.04296875 8.59375 C4.16161255 7.33594727 4.16161255 7.33594727 3.26245117 6.05273438 C2 4 2 4 2 2 C1.34 2 0.68 2 0 2 C0 1.34 0 0.68 0 0 Z " fill="#054087" transform="translate(328,770)" />
<path d="M0 0 C33 0 66 0 100 0 C100 7.59 100 15.18 100 23 C88.12 23 76.24 23 64 23 C64 52.7 64 82.4 64 113 C54.76 113 45.52 113 36 113 C36 83.3 36 53.6 36 23 C24.12 23 12.24 23 0 23 C0 15.41 0 7.82 0 0 Z " fill="#0A448A" transform="translate(441,770)" />
<path d="M0 0 C2.22741857 0.91262289 4.07286239 1.94796815 6.0625 3.296875 C6.7534375 3.709375 7.444375 4.121875 8.15625 4.546875 C13.84526944 8.28294747 17.23120574 13.15639285 20.0625 19.296875 C22.82306856 27.39709001 23.82899537 36.95361989 21.49560547 45.33251953 C18.92589963 52.26251481 15.07768902 58.43058402 9.17578125 62.96875 C0.88242862 68.18083853 -6.85976425 69.67301735 -16.5859375 69.57421875 C-24.12333653 68.95049459 -30.37386872 65.62739493 -36.19140625 60.91015625 C-42.30661725 55.26008435 -45.14582851 48.36892685 -46.9375 40.296875 C-47.9627506 31.87652979 -47.20767426 24.7334025 -43.53515625 17.05078125 C-39.70764622 10.45323951 -35.19099017 5.66846687 -28.625 1.734375 C-19.89245266 -2.25415489 -9.26415728 -2.21748446 0 0 Z " fill="#FBFCFD" transform="translate(620.9375,792.703125)" />
<path d="M0 0 C4.95 -0.103125 9.9 -0.20625 15 -0.3125 C16.54558594 -0.35802002 18.09117187 -0.40354004 19.68359375 -0.45043945 C31.06735101 -0.56519507 31.06735101 -0.56519507 35.84765625 2.35546875 C39.70427634 5.27097103 42.45789182 8.37367546 44 13 C44.53279049 17.28515777 44.71518514 21.29499864 43.0234375 25.328125 C40.29959882 29.84000502 37.58566075 32.74748478 32.81567383 35.05810547 C29.39055663 36.20386998 26.55913396 36.22603518 22.94921875 36.1953125 C21.14070435 36.18781982 21.14070435 36.18781982 19.2956543 36.18017578 C17.77496338 36.16196777 16.25427246 36.14375977 14.6875 36.125 C9.840625 36.08375 4.99375 36.0425 0 36 C0 24.12 0 12.24 0 0 Z " fill="#FAFCFD" transform="translate(718,793)" />
<path d="M0 0 C0.66 0.33 1.32 0.66 2 1 C3.14495456 3.42793052 4.18663336 5.83713824 5.1875 8.32421875 C5.49067139 9.06323929 5.79384277 9.80225983 6.10620117 10.56367493 C6.74811731 12.13189795 7.38677991 13.70145602 8.02246094 15.2722168 C8.99000452 17.66280337 9.96669055 20.04947697 10.9453125 22.43554688 C11.56825169 23.96071568 12.19066423 25.48609972 12.8125 27.01171875 C13.10213623 27.72132248 13.39177246 28.43092621 13.69018555 29.16203308 C13.96386963 29.83905777 14.23755371 30.51608246 14.51953125 31.21362305 C14.87688354 32.09512276 14.87688354 32.09512276 15.24145508 32.99443054 C16.23994905 35.63441793 17.10744616 38.32233847 18 41 C6.45 41 -5.1 41 -17 41 C-15.10983022 35.32949066 -13.21536604 29.85477702 -10.8984375 24.375 C-10.61650543 23.70202881 -10.33457336 23.02905762 -10.0440979 22.33569336 C-9.45579525 20.93357577 -8.86589117 19.53212907 -8.27441406 18.13134766 C-7.36601941 15.97871865 -6.46393841 13.82351873 -5.5625 11.66796875 C-4.98734715 10.29932447 -4.41183955 8.9308292 -3.8359375 7.5625 C-3.56615082 6.91780762 -3.29636414 6.27311523 -3.0184021 5.60888672 C-1.11537783 1.11537783 -1.11537783 1.11537783 0 0 Z " fill="#F0F5F9" transform="translate(860,798)" />
<path d="M0 0 C9.508125 -0.04125 19.01625 -0.0825 28.8125 -0.125 C33.3135437 -0.15231201 33.3135437 -0.15231201 37.90551758 -0.18017578 C40.27685365 -0.18601554 42.64819171 -0.19111232 45.01953125 -0.1953125 C46.25650757 -0.20554443 47.49348389 -0.21577637 48.76794434 -0.22631836 C49.94514038 -0.22656006 51.12233643 -0.22680176 52.33520508 -0.22705078 C53.35890701 -0.231492 54.38260895 -0.23593323 55.43733215 -0.24050903 C58 0 58 0 61 2 C41.53 2 22.06 2 2 2 C2.33 37.97 2.66 73.94 3 111 C10.59 111.33 18.18 111.66 26 112 C26 102.1 26 92.2 26 82 C26.33 82 26.66 82 27 82 C27 92.23 27 102.46 27 113 C18.09 113 9.18 113 0 113 C0 75.71 0 38.42 0 0 Z " fill="#275188" transform="translate(690,770)" />
<path d="M0 0 C0.33 0 0.66 0 1 0 C1.00331015 0.81244612 1.00662029 1.62489223 1.01003075 2.46195793 C1.09116155 22.20746767 1.18322114 41.95289988 1.28752708 61.69830132 C1.33770307 71.24693059 1.3841453 80.79555105 1.421875 90.34423828 C1.45475986 98.66441139 1.49457145 106.98451718 1.54279006 115.30461609 C1.56809006 119.71226927 1.58986087 124.11987759 1.60334396 128.52758408 C1.61613272 132.67258754 1.63815222 136.81743743 1.66738319 140.96235657 C1.67648402 142.48697886 1.68215501 144.01162589 1.68421364 145.53627396 C1.68751864 147.61142566 1.70294709 149.68613722 1.7215271 151.76119995 C1.72705786 152.9245027 1.73258862 154.08780544 1.73828697 155.28635979 C1.82465227 156.18186106 1.91101757 157.07736233 2 158 C2.66 158.66 3.32 159.32 4 160 C2.02 160.99 2.02 160.99 0 162 C0 108.54 0 55.08 0 0 Z " fill="#043673" transform="translate(601,313)" />
<path d="M0 0 C0.33 1.32 0.66 2.64 1 4 C-0.65 6.31 -2.3 8.62 -4 11 C4.91 11 13.82 11 23 11 C23.33 10.34 23.66 9.68 24 9 C24 9.99 24 10.98 24 12 C23.67 12.33 23.34 12.66 23 13 C20.70848583 13.08790975 18.41427476 13.10694038 16.12109375 13.09765625 C15.09110008 13.09553383 15.09110008 13.09553383 14.04029846 13.09336853 C11.83932199 13.08775479 9.63844591 13.07520007 7.4375 13.0625 C5.94856917 13.05748676 4.45963676 13.05292355 2.97070312 13.04882812 C-0.68623075 13.03778093 -4.34310558 13.02050713 -8 13 C-7.23302204 11.58124235 -6.46123222 10.16508548 -5.6875 8.75 C-5.04361328 7.56664062 -5.04361328 7.56664062 -4.38671875 6.359375 C-3.0603786 4.10272866 -1.61115776 2.06001403 0 0 Z " fill="#0F3D74" transform="translate(334,870)" />
<path d="M0 0 C10.23 0 20.46 0 31 0 C30.34 1.32 29.68 2.64 29 4 C28.01 4.495 28.01 4.495 27 5 C27 4.01 27 3.02 27 2 C23.06165122 2.0807386 19.12486673 2.19359377 15.1875 2.3125 C14.06794922 2.33505859 12.94839844 2.35761719 11.79492188 2.38085938 C10.72177734 2.41630859 9.64863281 2.45175781 8.54296875 2.48828125 C7.55321045 2.51446533 6.56345215 2.54064941 5.54370117 2.56762695 C2.93673317 2.79241981 2.93673317 2.79241981 1.15356445 4.53198242 C0.77288818 5.01642822 0.39221191 5.50087402 0 6 C-0.99 5.67 -1.98 5.34 -3 5 C-2.01 3.35 -1.02 1.7 0 0 Z " fill="#375E8E" transform="translate(408,770)" />
<path d="M0 0 C10.56 0 21.12 0 32 0 C32.495 2.475 32.495 2.475 33 5 C32.34 4.34 31.68 3.68 31 3 C28.01975548 2.73770502 28.01975548 2.73770502 24.53125 2.83984375 C23.23832031 2.85080078 21.94539063 2.86175781 20.61328125 2.87304688 C19.24217686 2.89384103 17.87108289 2.91533357 16.5 2.9375 C13.82290686 2.97383062 11.14599778 3.00198597 8.46875 3.02734375 C6.68114258 3.05429321 6.68114258 3.05429321 4.85742188 3.08178711 C2 3 2 3 0 2 C0 1.34 0 0.68 0 0 Z " fill="#3E6394" transform="translate(328,770)" />
<path d="M0 0 C0.33 1.32 0.66 2.64 1 4 C9.25 4 17.5 4 26 4 C26 3.34 26 2.68 26 2 C26.66 2.33 27.32 2.66 28 3 C27.67 3.99 27.34 4.98 27 6 C17.43 6 7.86 6 -2 6 C-1.34 4.02 -0.68 2.04 0 0 Z " fill="#144176" transform="translate(798,877)" />
<path d="M0 0 C0.66 0 1.32 0 2 0 C2 0.66 2 1.32 2 2 C2.99 2.33 3.98 2.66 5 3 C6.5078125 4.6015625 6.5078125 4.6015625 8.125 6.625 C15.86829512 15.65348933 25.5552986 20.70196306 36 26 C35.01 26.33 34.02 26.66 33 27 C20.51369464 21.74260827 9.90839345 13.11031955 1 3 C0.67 2.01 0.34 1.02 0 0 Z " fill="#184377" transform="translate(185,662)" />
<path d="M0 0 C0.99 0.33 1.98 0.66 3 1 C2.64695801 1.72590332 2.29391602 2.45180664 1.93017578 3.19970703 C0.32465438 6.50631029 -1.27522005 9.81561539 -2.875 13.125 C-3.43058594 14.26710938 -3.98617187 15.40921875 -4.55859375 16.5859375 C-5.09355469 17.69453125 -5.62851563 18.803125 -6.1796875 19.9453125 C-6.67194824 20.96125488 -7.16420898 21.97719727 -7.67138672 23.02392578 C-8.98743779 25.97186083 -10.03282156 28.9218844 -11 32 C-11.66 31.67 -12.32 31.34 -13 31 C-11.13756152 22.92943324 -7.62217741 15.93583323 -3.83984375 8.63671875 C-2.38320397 5.81479893 -1.11200124 2.97878053 0 0 Z " fill="#123F76" transform="translate(221,494)" />
<path d="M0 0 C0 3 0 3 -0.92578125 4.65625 C-5.65799731 10.94809783 -11.02526029 16.86461194 -17 22 C-19.16162109 22.63891602 -19.16162109 22.63891602 -21 23 C-16.52863561 17.6998313 -11.88507382 12.60393477 -7.125 7.5625 C-6.43664062 6.83095703 -5.74828125 6.09941406 -5.0390625 5.34570312 C-3.36075098 3.56249713 -1.68104588 1.78062784 0 0 Z " fill="#13427A" transform="translate(694,413)" />
<path d="M0 0 C1.35432675 1.31200404 2.68733482 2.64631404 4 4 C4 4.33 4 4.66 4 5 C-5.9 5 -15.8 5 -26 5 C-26.66 4.01 -27.32 3.02 -28 2 C-14.14 2.495 -14.14 2.495 0 3 C0 2.01 0 1.02 0 0 Z " fill="#0C3970" transform="translate(788,878)" />
<path d="M0 0 C0.33 0.66 0.66 1.32 1 2 C-4.48451952 8.50460105 -10.39579195 14.51483782 -16.4375 20.5 C-17.35982422 21.4178125 -18.28214844 22.335625 -19.23242188 23.28125 C-21.48599899 25.52315055 -23.74189075 27.762666 -26 30 C-26.66 29.67 -27.32 29.34 -28 29 C-27.29391602 28.29915283 -26.58783203 27.59830566 -25.86035156 26.8762207 C-23.22626346 24.26031535 -20.59555389 21.64103421 -17.96582031 19.02075195 C-16.83001216 17.88995377 -15.69330569 16.7600571 -14.55566406 15.63110352 C-12.91491034 14.00256206 -11.27747918 12.370741 -9.640625 10.73828125 C-9.13629944 10.23911697 -8.63197388 9.7399527 -8.11236572 9.22566223 C-5.18647917 6.3002359 -2.52270103 3.27898795 0 0 Z " fill="#EAF5FA" transform="translate(667,413)" />
<path d="M0 0 C0.33 0 0.66 0 1 0 C1.02689216 1.47906892 1.04634621 2.95827483 1.0625 4.4375 C1.07410156 5.26121094 1.08570313 6.08492187 1.09765625 6.93359375 C1.06542969 7.61550781 1.03320312 8.29742188 1 9 C0.67 9.33 0.34 9.66 0 10 C-0.20968751 12.32986123 -0.36815389 14.66444036 -0.5 17 C-0.63184611 19.33555964 -0.79031249 21.67013877 -1 24 C-1.33 24.33 -1.66 24.66 -2 25 C-2.23481693 27.18292774 -2.41363323 29.37203174 -2.5625 31.5625 C-2.64628906 32.76003906 -2.73007813 33.95757813 -2.81640625 35.19140625 C-2.87699219 36.11824219 -2.93757812 37.04507813 -3 38 C-3.33 38 -3.66 38 -4 38 C-4.47788505 25.00860641 -3.23979295 12.62384014 0 0 Z " fill="#B5CADC" transform="translate(204,541)" />
<path d="M0 0 C0.66 0 1.32 0 2 0 C2 4.62 2 9.24 2 14 C1.34 14 0.68 14 0 14 C-0.33 11.69 -0.66 9.38 -1 7 C-2.98 7.99 -2.98 7.99 -5 9 C-3.35 6.03 -1.7 3.06 0 0 Z " fill="#3B5C86" transform="translate(237,456)" />
<path d="M0 0 C0.89872669 2.96773777 0.97172263 4.13624553 0.3125 7.3125 C-1.09678689 11.27192508 -2.82209629 14.41699712 -5 18 C-5.33 18.66 -5.66 19.32 -6 20 C-6.66 20 -7.32 20 -8 20 C-5.83836487 13.06001352 -3.1063786 6.56882431 0 0 Z " fill="#1F4A7E" transform="translate(841,781)" />
<path d="M0 0 C0.57421875 1.765625 0.57421875 1.765625 1 4 C-0.78484894 9.63636509 -3.28506042 14.75735805 -6 20 C-6.66 20 -7.32 20 -8 20 C-5.83836487 13.06001352 -3.1063786 6.56882431 0 0 Z " fill="#1B477A" transform="translate(193,528)" />
<path d="M0 0 C0.33 0 0.66 0 1 0 C1.73302113 5.37548825 0.44666061 8.58438212 -2 13.4375 C-2.98661547 15.29882317 -3.98232972 17.15547262 -5 19 C-5.66 19 -6.32 19 -7 19 C-5.58632741 14.65328707 -4.02739359 10.3864361 -2.375 6.125 C-1.92898438 4.97257812 -1.48296875 3.82015625 -1.0234375 2.6328125 C-0.68570313 1.76398438 -0.34796875 0.89515625 0 0 Z " fill="#1F4A7F" transform="translate(782,278)" />
<path d="M0 0 C0.67578125 1.51953125 0.67578125 1.51953125 1 4 C0.16118833 6.6653026 -0.73263954 9.12557371 -1.8125 11.6875 C-2.08642578 12.37650391 -2.36035156 13.06550781 -2.64257812 13.77539062 C-3.36742011 15.54317071 -4.17815949 17.27517522 -5 19 C-5.66 19.33 -6.32 19.66 -7 20 C-7 18.35 -7 16.7 -7 15 C-6.34 15 -5.68 15 -5 15 C-4.87753906 14.28457031 -4.75507812 13.56914063 -4.62890625 12.83203125 C-3.98864625 9.94887287 -3.06448444 7.41407527 -1.9375 4.6875 C-1.39416016 3.36298828 -1.39416016 3.36298828 -0.83984375 2.01171875 C-0.56269531 1.34785156 -0.28554688 0.68398438 0 0 Z " fill="#123E76" transform="translate(858,797)" />
<path d="M0 0 C4.95949237 3.82589412 9.38265713 7.8595654 13 13 C9.84709384 12.63620314 8.45264247 11.60289748 5.8125 9.6875 C3 7 3 7 2.125 4.6875 C2.063125 3.8521875 2.063125 3.8521875 2 3 C1.34 3 0.68 3 0 3 C0 2.01 0 1.02 0 0 Z " fill="#DBE9F4" transform="translate(557,861)" />
<path d="M0 0 C0.99 0.33 1.98 0.66 3 1 C3 1.66 3 2.32 3 3 C10.59 3.33 18.18 3.66 26 4 C26 4.33 26 4.66 26 5 C15.11 5.495 15.11 5.495 4 6 C2.68 4.02 1.36 2.04 0 0 Z " fill="#114380" transform="translate(176,877)" />
<path d="M0 0 C0 0.99 0 1.98 0 3 C-1.87514754 4.84566409 -3.71185705 6.48026604 -5.75 8.125 C-6.28882813 8.58003906 -6.82765625 9.03507812 -7.3828125 9.50390625 C-10.13915323 11.76948387 -12.39549801 13.56256044 -16 14 C-12.56846086 10.46808678 -9.02624938 7.2862495 -5.1875 4.1875 C-4.21167969 3.39730469 -3.23585938 2.60710937 -2.23046875 1.79296875 C-1.49441406 1.20128906 -0.75835938 0.60960937 0 0 Z " fill="#164276" transform="translate(610,493)" />
<path d="M0 0 C0 0.66 0 1.32 0 2 C-1.04800781 2.61488281 -1.04800781 2.61488281 -2.1171875 3.2421875 C-3.02726563 3.78101563 -3.93734375 4.31984375 -4.875 4.875 C-6.23238281 5.67550781 -6.23238281 5.67550781 -7.6171875 6.4921875 C-10.06603282 7.91975352 -10.06603282 7.91975352 -12 10 C-12.99 9.67 -13.98 9.34 -15 9 C-13.20966193 7.68568828 -11.41768797 6.3736047 -9.625 5.0625 C-8.62726562 4.33160156 -7.62953125 3.60070312 -6.6015625 2.84765625 C-2.59196617 0 -2.59196617 0 0 0 Z " fill="#1B4477" transform="translate(580,775)" />
<path d="M0 0 C0.99 0.33 1.98 0.66 3 1 C0.69 5.62 -1.62 10.24 -4 15 C-5 11 -5 11 -4.00390625 8.203125 C-3.52824219 7.22859375 -3.05257812 6.2540625 -2.5625 5.25 C-2.08941406 4.26515625 -1.61632812 3.2803125 -1.12890625 2.265625 C-0.75636719 1.51796875 -0.38382813 0.7703125 0 0 Z " fill="#224A7C" transform="translate(221,494)" />
<path d="M0 0 C0.99 0.33 1.98 0.66 3 1 C2.21494099 3.12744999 1.4217394 5.25189674 0.625 7.375 C0.18414063 8.55835938 -0.25671875 9.74171875 -0.7109375 10.9609375 C-2 14 -2 14 -4 16 C-4.1875 13.8125 -4.1875 13.8125 -4 11 C-3.0126546 9.32580562 -2.01187895 7.65948148 -1 6 C-0.28598768 2.80604974 -0.28598768 2.80604974 0 0 Z " fill="#1A457B" transform="translate(847,821)" />
<path d="M0 0 C0.33 0.99 0.66 1.98 1 3 C-0.29296875 5.41015625 -0.29296875 5.41015625 -2.1875 8.0625 C-2.79980469 8.94035156 -3.41210938 9.81820313 -4.04296875 10.72265625 C-5.95456729 12.9471312 -7.30284026 13.94146946 -10 15 C-9.08333333 13.625 -8.16666667 12.25 -7.25 10.875 C-6.70601562 10.05902344 -6.16203125 9.24304688 -5.6015625 8.40234375 C-3.734375 5.6015625 -1.8671875 2.80078125 0 0 Z " fill="#D7E6F1" transform="translate(794,364)" />
<path d="M0 0 C2 1.375 2 1.375 4 3 C4 3.66 4 4.32 4 5 C4.66 5 5.32 5 6 5 C6.33 6.32 6.66 7.64 7 9 C7.99 9.33 8.98 9.66 10 10 C9.67 10.99 9.34 11.98 9 13 C7.4941255 11.21326795 5.9954515 9.42046492 4.5 7.625 C3.6646875 6.62726562 2.829375 5.62953125 1.96875 4.6015625 C1.3190625 3.74304688 0.669375 2.88453125 0 2 C0 1.34 0 0.68 0 0 Z " fill="#164176" transform="translate(127,816)" />
<path d="M0 0 C0.66 0 1.32 0 2 0 C2 0.66 2 1.32 2 2 C2.99 2.33 3.98 2.66 5 3 C6.40113616 4.95309888 7.73339467 6.95708818 9 9 C9.99 10.485 9.99 10.485 11 12 C10.01 12 9.02 12 8 12 C5.95703125 9.62890625 5.95703125 9.62890625 3.8125 6.5625 C3.09707031 5.55316406 2.38164062 4.54382813 1.64453125 3.50390625 C0 1 0 1 0 0 Z " fill="#1D497D" transform="translate(388,448)" />
<path d="M0 0 C0.33 0 0.66 0 1 0 C1 1.65 1 3.3 1 5 C0.34 5 -0.32 5 -1 5 C-1.2475 6.11375 -1.495 7.2275 -1.75 8.375 C-2.1625 9.57125 -2.575 10.7675 -3 12 C-4.98 12.99 -4.98 12.99 -7 14 C-4.69 9.38 -2.38 4.76 0 0 Z " fill="#1B477D" transform="translate(770,306)" />
<path d="M0 0 C1 4 1 4 -0.3125 7.5 C-3.01886792 13.11320755 -3.01886792 13.11320755 -4 15 C-4.66 14.67 -5.32 14.34 -6 14 C-4.02 9.38 -2.04 4.76 0 0 Z " fill="#224B7F" transform="translate(819,830)" />
<path d="M0 0 C3.22655246 0.36665369 5.57641195 0.74361776 8.375 2.4375 C8.91125 2.953125 9.4475 3.46875 10 4 C10 4.66 10 5.32 10 6 C10.66 6 11.32 6 12 6 C11.67 6.99 11.34 7.98 11 9 C10.54109375 8.60167969 10.0821875 8.20335937 9.609375 7.79296875 C6.47728415 5.08857938 3.36122541 2.42008229 0 0 Z " fill="#D2E2EF" transform="translate(641,776)" />
<path d="M0 0 C0.66 0.33 1.32 0.66 2 1 C0.42353449 2.32074115 -1.16145531 3.63131224 -2.75 4.9375 C-3.63171875 5.66839844 -4.5134375 6.39929688 -5.421875 7.15234375 C-7.76330955 8.83037185 -9.19661127 9.58735166 -12 10 C-8.29909479 6.0747975 -4.45040344 3.05419844 0 0 Z " fill="#134176" transform="translate(588,511)" />
<path d="M0 0 C0.33 1.32 0.66 2.64 1 4 C-0.21484375 5.921875 -0.21484375 5.921875 -1.9375 7.75 C-2.50339844 8.36359375 -3.06929688 8.9771875 -3.65234375 9.609375 C-4.31943359 10.29773438 -4.31943359 10.29773438 -5 11 C-5.66 10.67 -6.32 10.34 -7 10 C-4.69 6.7 -2.38 3.4 0 0 Z " fill="#1F4B80" transform="translate(334,870)" />
<path d="M0 0 C0.66 0.33 1.32 0.66 2 1 C0.35 4.63 -1.3 8.26 -3 12 C-3.33 12 -3.66 12 -4 12 C-4.25 9.375 -4.25 9.375 -4 6 C-2 2.625 -2 2.625 0 0 Z " fill="#E4F2F9" transform="translate(553,796)" />
<path d="M0 0 C2.63092581 1.04093152 3.9326665 1.91444321 5.703125 4.1640625 C6.21359375 4.97617187 6.7240625 5.78828125 7.25 6.625 C8.03117188 7.85089844 8.03117188 7.85089844 8.828125 9.1015625 C9.21484375 9.72804688 9.6015625 10.35453125 10 11 C9.01 11.495 9.01 11.495 8 12 C7.03760548 10.75312408 6.08025991 9.50235031 5.125 8.25 C4.59132813 7.55390625 4.05765625 6.8578125 3.5078125 6.140625 C2.10761086 4.15277397 1.02144735 2.20156614 0 0 Z " fill="#214A7C" transform="translate(653,786)" />
<path d="M0 0 C2.74953946 2.74953946 3.17042807 5.2350197 4 9 C3.625 11.9375 3.625 11.9375 3 14 C1.20724134 10.88089144 0.65709282 8.32317572 0.375 4.75 C0.30023438 3.85796875 0.22546875 2.9659375 0.1484375 2.046875 C0.09945312 1.37140625 0.05046875 0.6959375 0 0 Z " fill="#12417A" transform="translate(173,629)" />
<path d="M0 0 C3.28788824 3.11016455 5.83735988 6.01618925 8 10 C7.01 10 6.02 10 5 10 C3.61328125 8.57421875 3.61328125 8.57421875 2.3125 6.6875 C1.65701172 5.76517578 1.65701172 5.76517578 0.98828125 4.82421875 C0 3 0 3 0 0 Z " fill="#DFEDF7" transform="translate(378,436)" />
<path d="M0 0 C0.66 0 1.32 0 2 0 C3.5078125 1.75 3.5078125 1.75 5.125 4 C5.66382813 4.7425 6.20265625 5.485 6.7578125 6.25 C7.16773438 6.8275 7.57765625 7.405 8 8 C7.67 8.99 7.34 9.98 7 11 C5.83051998 9.35616456 4.6644855 7.70987731 3.5 6.0625 C2.8503125 5.14597656 2.200625 4.22945312 1.53125 3.28515625 C0 1 0 1 0 0 Z " fill="#1A477C" transform="translate(440,515)" />
<path d="M0 0 C0 3 0 3 -1.3125 5.04296875 C-1.869375 5.75066406 -2.42625 6.45835937 -3 7.1875 C-3.556875 7.90292969 -4.11375 8.61835938 -4.6875 9.35546875 C-5.120625 9.89816406 -5.55375 10.44085938 -6 11 C-6.66 10.67 -7.32 10.34 -8 10 C-5.36 6.7 -2.72 3.4 0 0 Z " fill="#D9E7F3" transform="translate(780,384)" />
<path d="M0 0 C0.66 0 1.32 0 2 0 C1.54917531 1.46067199 1.08906463 2.91848032 0.625 4.375 C0.36976563 5.18710937 0.11453125 5.99921875 -0.1484375 6.8359375 C-1 9 -1 9 -3 11 C-2.53199289 6.94393835 -2.12046792 3.53411321 0 0 Z " fill="#1A4578" transform="translate(760,277)" />
<path d="M0 0 C1.35432675 1.31200404 2.68733482 2.64631404 4 4 C4 4.33 4 4.66 4 5 C0.7 5 -2.6 5 -6 5 C-2 3 -2 3 0 3 C0 2.01 0 1.02 0 0 Z " fill="#1C4476" transform="translate(788,878)" />
<path d="M0 0 C0.33 0.99 0.66 1.98 1 3 C0.00390625 5.04296875 0.00390625 5.04296875 -1.4375 7.1875 C-1.91058594 7.90292969 -2.38367188 8.61835938 -2.87109375 9.35546875 C-3.24363281 9.89816406 -3.61617187 10.44085938 -4 11 C-4.66 10.34 -5.32 9.68 -6 9 C-4.02 6.03 -2.04 3.06 0 0 Z " fill="#1E4A7F" transform="translate(748,343)" />
<path d="M0 0 C0.33 0 0.66 0 1 0 C1.39253254 4.44870215 0.15305957 7.14243493 -2 11 C-2.66 11 -3.32 11 -4 11 C-2.7874262 7.27566618 -1.49140021 3.62197194 0 0 Z " fill="#1E477A" transform="translate(810,850)" />
<path d="M0 0 C0.66 0.33 1.32 0.66 2 1 C0.35 3.64 -1.3 6.28 -3 9 C-3.33 8.01 -3.66 7.02 -4 6 C-2.0625 2.8125 -2.0625 2.8125 0 0 Z " fill="#103D73" transform="translate(213,493)" />
<path d="M0 0 C0.66 0.99 1.32 1.98 2 3 C0.02 5.64 -1.96 8.28 -4 11 C-4.66 10.67 -5.32 10.34 -6 10 C-4.02 6.7 -2.04 3.4 0 0 Z " fill="#214A7D" transform="translate(755,332)" />
<path d="M0 0 C1 3 1 3 1 6 C1.66 6.66 2.32 7.32 3 8 C1.02 8.99 1.02 8.99 -1 10 C-1.125 2.25 -1.125 2.25 0 0 Z " fill="#0E3B72" transform="translate(602,465)" />
<path d="M0 0 C0.99 0.33 1.98 0.66 3 1 C3 1.66 3 2.32 3 3 C3.66 3 4.32 3 5 3 C5.99 4.65 6.98 6.3 8 8 C7.01 8 6.02 8 5 8 C3.35 5.36 1.7 2.72 0 0 Z " fill="#1C487C" transform="translate(374,430)" />
<path d="M0 0 C0.66 0.33 1.32 0.66 2 1 C0.35 2.65 -1.3 4.3 -3 6 C-3.99 5.67 -4.98 5.34 -6 5 C-4.06745228 2.9754262 -2.36841312 1.57894208 0 0 Z " fill="#D8E8F4" transform="translate(773,842)" />
<path d="M0 0 C0.5775 0.20625 1.155 0.4125 1.75 0.625 C-3.42578125 3.84765625 -3.42578125 3.84765625 -5.25 4.625 C-6.24 4.295 -7.23 3.965 -8.25 3.625 C-5.66567615 1.04067615 -3.75130465 -0.62521744 0 0 Z " fill="#DAEAF3" transform="translate(498.25,571.375)" />
<path d="M0 0 C0.66 0.33 1.32 0.66 2 1 C0.35 2.98 -1.3 4.96 -3 7 C-3.66 6.34 -4.32 5.68 -5 5 C-3.35 3.35 -1.7 1.7 0 0 Z " fill="#D3E2ED" transform="translate(684,421)" />
<path d="M0 0 C0.66 0.33 1.32 0.66 2 1 C1.67 3.64 1.34 6.28 1 9 C0.34 8.34 -0.32 7.68 -1 7 C-1.1875 3.9375 -1.1875 3.9375 -1 1 C-0.67 0.67 -0.34 0.34 0 0 Z " fill="#204F84" transform="translate(848,248)" />
</svg>
